<?xml version="1.0" standalone="no"?>
<!DOCTYPE svg PUBLIC "-//W3C//DTD SVG 20010904//EN"
 "http://www.w3.org/TR/2001/REC-SVG-20010904/DTD/svg10.dtd">
<svg version="1.0" xmlns="http://www.w3.org/2000/svg"
 width="255.000000pt" height="344.000000pt" viewBox="0 0 255.000000 344.000000"
 preserveAspectRatio="xMidYMid meet">
<metadata>
Created by potrace 1.16, written by Peter Selinger 2001-2019
</metadata>
<g transform="translate(0.000000,344.000000) scale(0.100000,-0.100000)"
fill="#000000" stroke="none">
<path d="M963 3000 c-24 -10 -63 -40 -88 -65 -39 -40 -45 -53 -45 -88 0 -30 7
-48 25 -67 25 -26 25 -28 10 -63 -8 -20 -15 -44 -14 -54 0 -10 10 6 21 35 12
29 30 58 41 64 27 14 164 30 199 22 22 -4 28 -12 33 -47 4 -23 16 -50 26 -60
24 -22 24 -29 0 -46 -16 -12 -18 -23 -14 -66 5 -51 4 -54 -36 -97 -22 -25 -37
-48 -33 -52 4 -4 1 -6 -7 -4 -10 2 -14 -7 -15 -32 -1 -29 -4 -34 -21 -32 -11
2 -48 4 -82 4 -35 1 -63 2 -63 3 0 1 18 14 40 29 22 14 40 30 40 35 0 8 -79 5
-109 -5 -11 -4 -11 -8 3 -22 9 -10 16 -24 16 -30 0 -15 39 -142 51 -164 13
-24 12 -28 -8 -29 -11 0 -13 -2 -5 -6 7 -3 24 2 37 11 33 22 44 20 51 -7 5
-24 68 -82 112 -106 21 -11 30 -6 111 63 57 49 96 91 110 118 16 32 21 37 21
21 0 -13 5 -23 12 -23 6 0 20 -8 31 -17 20 -18 20 -18 2 12 -10 17 -34 47 -53
67 -33 34 -34 40 -28 84 3 25 15 61 25 78 37 59 59 172 59 295 0 83 -4 121
-14 137 -19 29 -124 84 -160 84 -16 0 -53 9 -82 20 -66 25 -144 25 -199 0z"/>
<path d="M840 2608 c0 -35 24 -103 37 -105 6 -1 18 13 27 32 10 19 20 35 23
35 3 0 21 -11 39 -25 39 -30 68 -33 62 -7 -4 15 0 17 22 14 19 -3 35 4 53 22
26 26 26 26 5 37 -39 21 -131 20 -173 -1 -33 -17 -41 -18 -54 -6 -32 27 -41
28 -41 4z"/>
<path d="M810 2135 c-14 -7 -24 -17 -23 -22 1 -4 -10 -32 -24 -61 -22 -46 -26
-66 -28 -170 -1 -64 -6 -128 -12 -142 -6 -14 -13 -48 -17 -76 -6 -46 -4 -52
14 -57 18 -5 20 -13 20 -76 0 -67 -1 -71 -22 -71 -13 0 -36 7 -52 15 -15 8
-39 17 -52 19 -23 4 -24 2 -24 -49 0 -63 -14 -135 -43 -225 -18 -55 -22 -88
-21 -210 0 -80 1 -306 2 -503 l2 -358 32 -42 c82 -107 95 -113 163 -74 52 29
65 64 42 112 -9 20 -17 49 -17 65 0 55 -21 128 -51 175 -35 55 -44 91 -32 123
l9 23 45 -34 c42 -33 45 -38 57 -108 18 -108 32 -236 32 -294 0 -27 3 -60 6
-73 l6 -22 654 0 c398 0 654 4 654 9 0 5 -13 19 -30 31 -29 20 -30 25 -30 96
0 42 5 83 12 94 10 16 10 24 0 40 -9 15 -12 101 -12 332 0 360 -11 531 -39
603 -18 46 -30 106 -46 224 -5 37 -2 48 17 70 22 25 22 25 -8 -1 -16 -16 -37
-28 -45 -28 -9 0 -42 -11 -75 -24 -32 -13 -82 -26 -110 -29 -47 -5 -52 -4 -58
16 -3 12 0 39 6 60 9 31 8 44 -5 73 -15 31 -15 39 -3 69 18 42 11 69 -20 84
-39 18 -44 14 -44 -34 0 -32 -5 -47 -15 -52 -14 -5 -14 -8 1 -24 16 -17 15
-19 -9 -30 -14 -6 -31 -25 -38 -41 -7 -18 -24 -34 -41 -40 -35 -12 -35 -21 -2
-42 24 -16 27 -16 57 1 18 10 36 29 42 41 10 22 35 31 35 11 0 -6 -11 -25 -24
-42 -37 -50 -42 -76 -16 -94 30 -21 25 -87 -7 -91 -29 -4 -39 -32 -14 -39 11
-3 22 -11 25 -19 8 -22 33 -16 40 9 3 12 6 60 7 107 l2 85 8 -110 c5 -60 13
-135 18 -165 l9 -55 1 50 c1 28 8 95 15 150 l12 100 16 -50 c21 -64 35 -135
43 -210 6 -64 18 -145 61 -395 14 -85 31 -206 37 -267 10 -102 9 -114 -7 -130
-9 -10 -23 -27 -31 -38 -7 -11 -15 -18 -17 -15 -35 53 -58 115 -58 156 0 27
-12 85 -26 129 -14 44 -23 87 -21 97 5 16 -5 18 -101 19 -102 2 -261 7 -272 9
-3 1 4 5 15 10 14 5 2 7 -35 7 -30 -1 -77 4 -105 11 -104 25 -100 26 -136 -6
-54 -47 -66 -47 -178 3 -56 25 -108 45 -115 45 -16 0 -40 54 -33 73 3 8 -4 34
-15 58 -24 52 -25 103 -4 153 11 26 12 36 3 36 -7 0 -4 5 5 11 31 18 51 113
45 208 -9 129 -21 186 -36 176 -11 -6 -3 237 10 312 6 35 21 76 35 94 13 18
38 69 55 114 17 44 40 95 51 113 23 38 18 41 -15 8 -13 -13 -39 -27 -58 -31
-19 -4 -40 -12 -47 -18 -10 -8 -11 -4 -2 19 6 16 18 35 27 42 22 16 4 15 -27
-3z m-88 -691 c12 -8 9 -52 -6 -89 -16 -37 -59 -71 -77 -59 -9 5 -11 -20 -6
-111 3 -67 10 -121 16 -125 8 -4 8 -29 1 -83 -5 -42 -7 -84 -3 -92 7 -21 -18
-265 -28 -260 -9 6 -11 -106 -3 -162 4 -25 12 -43 19 -43 7 0 20 -11 29 -24
24 -37 55 -126 50 -141 -9 -23 -33 -25 -44 -5 -6 11 -15 20 -20 20 -12 0 -24
-39 -22 -73 3 -34 -22 -46 -48 -22 -15 13 -18 29 -16 75 1 33 5 62 8 66 4 4 5
26 1 49 -3 27 -1 45 6 50 9 5 8 13 -4 32 -22 33 -27 64 -13 81 15 18 13 411
-2 506 -19 118 -16 157 18 227 17 37 32 86 35 116 5 69 20 86 66 78 20 -4 39
-9 43 -11z m1262 -464 c-9 -173 -9 -213 -1 -383 5 -90 3 -128 -8 -160 -18 -52
-19 -103 -2 -111 6 -3 3 -5 -7 -3 -17 2 -19 10 -18 77 1 41 -3 102 -9 135 -6
33 -15 96 -19 140 -5 44 -15 107 -24 140 -9 33 -19 78 -22 100 -3 22 -10 62
-16 89 -9 42 -8 50 6 58 9 5 16 20 16 33 0 17 6 25 18 25 10 0 26 14 36 32
l19 31 20 -24 c18 -23 19 -33 11 -179z m-37 -702 c41 -15 50 -42 37 -120 -7
-39 -7 -59 1 -62 15 -6 -16 -33 -47 -40 -26 -6 -27 -5 -21 30 5 31 1 40 -32
74 -31 32 -42 37 -57 29 -21 -11 -38 -4 -38 15 0 17 88 86 108 86 9 0 31 -5
49 -12z"/>
</g>
</svg>
