<?xml version="1.0" standalone="no"?>
<!DOCTYPE svg PUBLIC "-//W3C//DTD SVG 20010904//EN"
 "http://www.w3.org/TR/2001/REC-SVG-20010904/DTD/svg10.dtd">
<svg version="1.0" xmlns="http://www.w3.org/2000/svg"
 width="243.000000pt" height="326.000000pt" viewBox="0 0 243.000000 326.000000"
 preserveAspectRatio="xMidYMid meet">
<metadata>
Created by potrace 1.16, written by Peter Selinger 2001-2019
</metadata>
<g transform="translate(0.000000,326.000000) scale(0.100000,-0.100000)"
fill="#000000" stroke="none">
<path d="M1049 2761 c-37 -15 -76 -35 -89 -44 -30 -21 -84 -103 -100 -151 -14
-44 -9 -210 8 -243 5 -10 12 -34 16 -53 5 -30 3 -37 -16 -45 -19 -8 -24 -19
-26 -58 -3 -43 24 -155 34 -144 2 2 -1 17 -6 34 -8 20 -7 37 0 54 10 23 10 23
6 -6 -3 -17 2 -38 10 -49 12 -17 14 -18 14 -3 0 9 2 17 5 17 11 0 55 -53 55
-66 0 -22 -40 -27 -61 -8 -18 16 -19 16 -13 1 3 -10 18 -20 33 -23 60 -13 60
-14 73 -77 7 -34 14 -54 16 -43 3 14 9 8 23 -24 19 -43 30 -172 16 -186 -13
-13 -56 14 -72 45 -15 29 -14 31 15 64 16 19 30 41 30 48 0 8 -6 3 -13 -11 -9
-18 -23 -26 -53 -30 -21 -3 -62 -19 -89 -34 -28 -16 -102 -58 -165 -93 -253
-140 -302 -189 -316 -321 -7 -67 22 -379 38 -405 5 -9 11 -6 22 8 13 18 29 21
163 25 200 7 193 9 193 -54 0 -29 6 -60 13 -68 11 -15 16 -15 52 -2 22 8 87
21 144 29 57 8 138 25 180 39 42 13 117 29 166 36 50 7 97 14 105 17 33 11
146 33 170 33 15 0 30 4 36 10 5 5 31 13 57 16 43 6 47 5 47 -14 0 -11 -7 -27
-15 -35 -8 -8 -11 -17 -8 -21 4 -3 -5 -6 -18 -6 -13 0 -19 -4 -14 -8 15 -11
12 -45 -5 -50 -22 -7 -30 -23 -30 -59 0 -23 -12 -46 -45 -84 -37 -44 -43 -55
-29 -59 14 -5 13 -10 -9 -35 -21 -25 -32 -29 -83 -31 -33 -1 -117 -6 -187 -10
l-128 -7 7 -31 c13 -59 12 -59 -71 -88 -65 -23 -90 -27 -137 -22 l-57 6 -7
-38 c-4 -24 -23 -55 -53 -88 -25 -28 -59 -69 -75 -91 -42 -57 -128 -145 -142
-145 -7 0 -16 9 -19 21 -4 11 -9 19 -11 17 -2 -3 1 -18 6 -34 5 -16 12 -41 15
-56 l5 -28 605 0 605 0 0 33 c0 37 -26 232 -35 263 -6 18 -1 24 27 33 41 13
165 42 196 46 28 3 74 35 80 56 3 8 1 11 -3 6 -5 -4 -14 7 -21 25 -7 18 -20
53 -28 77 -23 61 -62 108 -101 122 -22 8 -31 17 -28 27 3 8 1 17 -5 21 -6 4 2
25 23 56 39 56 38 71 -1 32 -15 -15 -32 -27 -40 -27 -7 0 -21 -3 -31 -7 -14
-5 -13 -1 6 20 14 15 21 27 16 27 -5 0 11 21 35 46 25 26 37 44 27 40 -10 -3
-25 -6 -33 -6 -8 0 -14 -6 -14 -13 0 -20 -47 -57 -64 -51 -25 10 -25 31 1 69
l26 38 -26 -5 c-21 -4 -27 -1 -29 16 -3 18 -8 14 -33 -23 l-30 -45 -3 43 c-2
24 2 57 7 74 6 16 11 44 11 61 0 30 3 32 100 70 54 21 111 39 125 40 29 1 29
-2 9 61 -8 28 -24 93 -34 145 -12 60 -33 122 -57 169 -46 89 -59 97 -291 164
-85 25 -159 50 -165 56 -9 9 -3 26 20 69 17 31 39 83 48 115 12 43 23 60 39
67 27 10 36 44 36 139 0 75 -6 89 -40 94 -23 4 -24 8 -26 78 -7 218 -13 317
-22 339 -11 28 -55 71 -92 91 -39 20 -156 38 -250 38 -71 0 -96 -4 -151 -28z
m413 -328 c17 -15 14 -48 -4 -37 -6 4 -8 1 -6 -7 3 -8 2 -24 -3 -36 -6 -15 -2
-29 12 -47 11 -15 25 -24 30 -21 5 4 9 1 9 -5 0 -6 -10 -8 -23 -4 -13 3 -62 0
-108 -6 -46 -7 -127 -13 -179 -14 -112 -1 -144 -16 -154 -72 -8 -40 -2 -54 24
-54 10 0 31 -13 47 -29 22 -22 36 -28 56 -24 21 4 27 1 27 -13 1 -16 4 -14 21
9 11 15 27 27 35 27 8 0 20 11 26 25 14 31 22 31 47 -1 16 -20 31 -26 76 -30
46 -4 63 0 101 21 24 14 49 25 54 25 17 0 11 -26 -10 -45 -11 -10 -18 -20 -15
-23 2 -3 -5 -14 -18 -24 -18 -17 -31 -19 -76 -14 -47 6 -52 5 -42 -8 19 -23 4
-36 -42 -36 -23 1 -62 -2 -85 -6 -51 -7 -73 6 -51 32 12 15 12 16 -6 11 -67
-20 -145 -28 -145 -15 0 5 -9 8 -20 8 -11 0 -20 -4 -20 -10 0 -11 -28 -9 -47
3 -6 4 -10 16 -8 27 3 14 -2 20 -15 20 -17 0 -18 4 -10 26 6 14 8 37 5 52 -4
21 -3 23 3 7 8 -18 9 -18 14 5 3 14 6 42 7 63 1 25 12 52 34 81 18 23 39 58
47 77 27 64 50 76 137 74 43 -2 98 0 123 4 63 9 132 2 152 -16z"/>
</g>
</svg>
